<mxfile host="app.diagrams.net" modified="2023-04-18T03:55:45.866Z" agent="Mozilla/5.0 (Windows NT 10.0; Win64; x64) AppleWebKit/537.36 (KHTML, like Gecko) Chrome/112.0.0.0 Safari/537.36 Edg/112.0.1722.48" etag="0Sl2Keybi_-DXfp-LSsy" version="21.1.8" type="github">
  <diagram id="6a731a19-8d31-9384-78a2-239565b7b9f0" name="Page-1">
    <mxGraphModel dx="2058" dy="2037" grid="1" gridSize="10" guides="1" tooltips="1" connect="1" arrows="1" fold="1" page="1" pageScale="1" pageWidth="1169" pageHeight="827" background="none" math="0" shadow="0">
      <root>
        <mxCell id="0" />
        <mxCell id="1" parent="0" />
        <mxCell id="x6zJdNe6x-nfvKUTiZdN-56" style="edgeStyle=orthogonalEdgeStyle;rounded=0;orthogonalLoop=1;jettySize=auto;html=1;exitX=1;exitY=0.5;exitDx=0;exitDy=0;exitPerimeter=0;entryX=0.095;entryY=0.5;entryDx=0;entryDy=0;entryPerimeter=0;" parent="1" source="2" target="3" edge="1">
          <mxGeometry relative="1" as="geometry" />
        </mxCell>
        <mxCell id="2" value="Entry screen" style="shape=mxgraph.flowchart.terminator;strokeWidth=2;gradientColor=none;gradientDirection=north;fontStyle=0;html=1;" parent="1" vertex="1">
          <mxGeometry x="20" y="358" width="120" height="30" as="geometry" />
        </mxCell>
        <mxCell id="x6zJdNe6x-nfvKUTiZdN-57" style="edgeStyle=orthogonalEdgeStyle;rounded=0;orthogonalLoop=1;jettySize=auto;html=1;exitX=0.905;exitY=0.5;exitDx=0;exitDy=0;exitPerimeter=0;" parent="1" source="3" edge="1">
          <mxGeometry relative="1" as="geometry">
            <mxPoint x="440" y="373.3529411764706" as="targetPoint" />
          </mxGeometry>
        </mxCell>
        <mxCell id="3" value="Home screen *login" style="shape=mxgraph.flowchart.data;strokeWidth=2;gradientColor=none;gradientDirection=north;fontStyle=0;html=1;" parent="1" vertex="1">
          <mxGeometry x="210" y="333" width="159" height="80" as="geometry" />
        </mxCell>
        <mxCell id="x6zJdNe6x-nfvKUTiZdN-66" style="edgeStyle=orthogonalEdgeStyle;rounded=0;orthogonalLoop=1;jettySize=auto;html=1;exitX=1;exitY=0.5;exitDx=0;exitDy=0;entryX=0;entryY=0.5;entryDx=0;entryDy=0;" parent="1" source="x6zJdNe6x-nfvKUTiZdN-58" target="x6zJdNe6x-nfvKUTiZdN-61" edge="1">
          <mxGeometry relative="1" as="geometry" />
        </mxCell>
        <mxCell id="x6zJdNe6x-nfvKUTiZdN-67" style="edgeStyle=orthogonalEdgeStyle;rounded=0;orthogonalLoop=1;jettySize=auto;html=1;exitX=1;exitY=0.5;exitDx=0;exitDy=0;entryX=0;entryY=0.5;entryDx=0;entryDy=0;" parent="1" source="x6zJdNe6x-nfvKUTiZdN-58" target="x6zJdNe6x-nfvKUTiZdN-59" edge="1">
          <mxGeometry relative="1" as="geometry" />
        </mxCell>
        <mxCell id="x6zJdNe6x-nfvKUTiZdN-68" style="edgeStyle=orthogonalEdgeStyle;rounded=0;orthogonalLoop=1;jettySize=auto;html=1;exitX=1;exitY=0.5;exitDx=0;exitDy=0;entryX=0;entryY=0.5;entryDx=0;entryDy=0;" parent="1" source="x6zJdNe6x-nfvKUTiZdN-58" target="x6zJdNe6x-nfvKUTiZdN-60" edge="1">
          <mxGeometry relative="1" as="geometry" />
        </mxCell>
        <mxCell id="x6zJdNe6x-nfvKUTiZdN-69" style="edgeStyle=orthogonalEdgeStyle;rounded=0;orthogonalLoop=1;jettySize=auto;html=1;exitX=1;exitY=0.5;exitDx=0;exitDy=0;entryX=0;entryY=0.5;entryDx=0;entryDy=0;" parent="1" source="x6zJdNe6x-nfvKUTiZdN-58" target="x6zJdNe6x-nfvKUTiZdN-62" edge="1">
          <mxGeometry relative="1" as="geometry" />
        </mxCell>
        <mxCell id="x6zJdNe6x-nfvKUTiZdN-70" style="edgeStyle=orthogonalEdgeStyle;rounded=0;orthogonalLoop=1;jettySize=auto;html=1;exitX=1;exitY=0.5;exitDx=0;exitDy=0;entryX=0;entryY=0.5;entryDx=0;entryDy=0;" parent="1" source="x6zJdNe6x-nfvKUTiZdN-58" target="x6zJdNe6x-nfvKUTiZdN-63" edge="1">
          <mxGeometry relative="1" as="geometry" />
        </mxCell>
        <mxCell id="x6zJdNe6x-nfvKUTiZdN-58" value="Categories" style="rounded=1;whiteSpace=wrap;html=1;" parent="1" vertex="1">
          <mxGeometry x="440" y="343" width="120" height="60" as="geometry" />
        </mxCell>
        <mxCell id="W8Xw8RqgCviROUl7637E-15" style="edgeStyle=orthogonalEdgeStyle;rounded=0;orthogonalLoop=1;jettySize=auto;html=1;entryX=0;entryY=0.5;entryDx=0;entryDy=0;" edge="1" parent="1" source="x6zJdNe6x-nfvKUTiZdN-59" target="x6zJdNe6x-nfvKUTiZdN-79">
          <mxGeometry relative="1" as="geometry" />
        </mxCell>
        <mxCell id="W8Xw8RqgCviROUl7637E-16" style="edgeStyle=orthogonalEdgeStyle;rounded=0;orthogonalLoop=1;jettySize=auto;html=1;exitX=1;exitY=0.5;exitDx=0;exitDy=0;entryX=0;entryY=0.5;entryDx=0;entryDy=0;" edge="1" parent="1" source="x6zJdNe6x-nfvKUTiZdN-59" target="x6zJdNe6x-nfvKUTiZdN-78">
          <mxGeometry relative="1" as="geometry" />
        </mxCell>
        <mxCell id="W8Xw8RqgCviROUl7637E-17" style="edgeStyle=orthogonalEdgeStyle;rounded=0;orthogonalLoop=1;jettySize=auto;html=1;exitX=1;exitY=0.5;exitDx=0;exitDy=0;entryX=0;entryY=0.5;entryDx=0;entryDy=0;" edge="1" parent="1" source="x6zJdNe6x-nfvKUTiZdN-59" target="x6zJdNe6x-nfvKUTiZdN-71">
          <mxGeometry relative="1" as="geometry" />
        </mxCell>
        <mxCell id="W8Xw8RqgCviROUl7637E-18" style="edgeStyle=orthogonalEdgeStyle;rounded=0;orthogonalLoop=1;jettySize=auto;html=1;exitX=1;exitY=0.5;exitDx=0;exitDy=0;entryX=0;entryY=0.5;entryDx=0;entryDy=0;" edge="1" parent="1" source="x6zJdNe6x-nfvKUTiZdN-59" target="x6zJdNe6x-nfvKUTiZdN-72">
          <mxGeometry relative="1" as="geometry" />
        </mxCell>
        <mxCell id="W8Xw8RqgCviROUl7637E-19" style="edgeStyle=orthogonalEdgeStyle;rounded=0;orthogonalLoop=1;jettySize=auto;html=1;exitX=1;exitY=0.5;exitDx=0;exitDy=0;entryX=0;entryY=0.5;entryDx=0;entryDy=0;" edge="1" parent="1" source="x6zJdNe6x-nfvKUTiZdN-59" target="x6zJdNe6x-nfvKUTiZdN-76">
          <mxGeometry relative="1" as="geometry" />
        </mxCell>
        <mxCell id="W8Xw8RqgCviROUl7637E-20" style="edgeStyle=orthogonalEdgeStyle;rounded=0;orthogonalLoop=1;jettySize=auto;html=1;exitX=1;exitY=0.5;exitDx=0;exitDy=0;entryX=0;entryY=0.5;entryDx=0;entryDy=0;" edge="1" parent="1" source="x6zJdNe6x-nfvKUTiZdN-59" target="x6zJdNe6x-nfvKUTiZdN-75">
          <mxGeometry relative="1" as="geometry" />
        </mxCell>
        <mxCell id="W8Xw8RqgCviROUl7637E-21" style="edgeStyle=orthogonalEdgeStyle;rounded=0;orthogonalLoop=1;jettySize=auto;html=1;exitX=1;exitY=0.5;exitDx=0;exitDy=0;entryX=0;entryY=0.5;entryDx=0;entryDy=0;" edge="1" parent="1" source="x6zJdNe6x-nfvKUTiZdN-59" target="x6zJdNe6x-nfvKUTiZdN-74">
          <mxGeometry relative="1" as="geometry" />
        </mxCell>
        <mxCell id="W8Xw8RqgCviROUl7637E-22" style="edgeStyle=orthogonalEdgeStyle;rounded=0;orthogonalLoop=1;jettySize=auto;html=1;exitX=1;exitY=0.5;exitDx=0;exitDy=0;entryX=0;entryY=0.5;entryDx=0;entryDy=0;" edge="1" parent="1" source="x6zJdNe6x-nfvKUTiZdN-59" target="x6zJdNe6x-nfvKUTiZdN-73">
          <mxGeometry relative="1" as="geometry" />
        </mxCell>
        <mxCell id="x6zJdNe6x-nfvKUTiZdN-59" value="Venues" style="rounded=1;whiteSpace=wrap;html=1;" parent="1" vertex="1">
          <mxGeometry x="630" y="70" width="120" height="40" as="geometry" />
        </mxCell>
        <mxCell id="W8Xw8RqgCviROUl7637E-23" style="edgeStyle=orthogonalEdgeStyle;rounded=0;orthogonalLoop=1;jettySize=auto;html=1;exitX=1;exitY=0.5;exitDx=0;exitDy=0;entryX=0;entryY=0.5;entryDx=0;entryDy=0;" edge="1" parent="1" source="x6zJdNe6x-nfvKUTiZdN-60" target="W8Xw8RqgCviROUl7637E-4">
          <mxGeometry relative="1" as="geometry" />
        </mxCell>
        <mxCell id="W8Xw8RqgCviROUl7637E-24" style="edgeStyle=orthogonalEdgeStyle;rounded=0;orthogonalLoop=1;jettySize=auto;html=1;exitX=1;exitY=0.5;exitDx=0;exitDy=0;entryX=0;entryY=0.5;entryDx=0;entryDy=0;" edge="1" parent="1" source="x6zJdNe6x-nfvKUTiZdN-60" target="W8Xw8RqgCviROUl7637E-5">
          <mxGeometry relative="1" as="geometry" />
        </mxCell>
        <mxCell id="W8Xw8RqgCviROUl7637E-25" style="edgeStyle=orthogonalEdgeStyle;rounded=0;orthogonalLoop=1;jettySize=auto;html=1;exitX=1;exitY=0.5;exitDx=0;exitDy=0;entryX=0;entryY=0.5;entryDx=0;entryDy=0;" edge="1" parent="1" source="x6zJdNe6x-nfvKUTiZdN-60" target="W8Xw8RqgCviROUl7637E-7">
          <mxGeometry relative="1" as="geometry" />
        </mxCell>
        <mxCell id="W8Xw8RqgCviROUl7637E-26" style="edgeStyle=orthogonalEdgeStyle;rounded=0;orthogonalLoop=1;jettySize=auto;html=1;exitX=1;exitY=0.5;exitDx=0;exitDy=0;entryX=0;entryY=0.5;entryDx=0;entryDy=0;" edge="1" parent="1" source="x6zJdNe6x-nfvKUTiZdN-60" target="W8Xw8RqgCviROUl7637E-8">
          <mxGeometry relative="1" as="geometry" />
        </mxCell>
        <mxCell id="x6zJdNe6x-nfvKUTiZdN-60" value="Wedding dress/tux" style="rounded=1;whiteSpace=wrap;html=1;" parent="1" vertex="1">
          <mxGeometry x="630" y="250" width="120" height="40" as="geometry" />
        </mxCell>
        <mxCell id="W8Xw8RqgCviROUl7637E-27" style="edgeStyle=orthogonalEdgeStyle;rounded=0;orthogonalLoop=1;jettySize=auto;html=1;exitX=1;exitY=0.5;exitDx=0;exitDy=0;entryX=0;entryY=0.5;entryDx=0;entryDy=0;" edge="1" parent="1" source="x6zJdNe6x-nfvKUTiZdN-61" target="W8Xw8RqgCviROUl7637E-9">
          <mxGeometry relative="1" as="geometry" />
        </mxCell>
        <mxCell id="W8Xw8RqgCviROUl7637E-28" style="edgeStyle=orthogonalEdgeStyle;rounded=0;orthogonalLoop=1;jettySize=auto;html=1;exitX=1;exitY=0.5;exitDx=0;exitDy=0;entryX=0;entryY=0.5;entryDx=0;entryDy=0;" edge="1" parent="1" source="x6zJdNe6x-nfvKUTiZdN-61" target="W8Xw8RqgCviROUl7637E-10">
          <mxGeometry relative="1" as="geometry" />
        </mxCell>
        <mxCell id="x6zJdNe6x-nfvKUTiZdN-61" value="Event hire" style="rounded=1;whiteSpace=wrap;html=1;" parent="1" vertex="1">
          <mxGeometry x="630" y="403" width="120" height="40" as="geometry" />
        </mxCell>
        <mxCell id="W8Xw8RqgCviROUl7637E-29" style="edgeStyle=orthogonalEdgeStyle;rounded=0;orthogonalLoop=1;jettySize=auto;html=1;exitX=1;exitY=0.5;exitDx=0;exitDy=0;entryX=0;entryY=0.5;entryDx=0;entryDy=0;" edge="1" parent="1" source="x6zJdNe6x-nfvKUTiZdN-62" target="W8Xw8RqgCviROUl7637E-11">
          <mxGeometry relative="1" as="geometry" />
        </mxCell>
        <mxCell id="W8Xw8RqgCviROUl7637E-30" style="edgeStyle=orthogonalEdgeStyle;rounded=0;orthogonalLoop=1;jettySize=auto;html=1;exitX=1;exitY=0.5;exitDx=0;exitDy=0;entryX=0;entryY=0.5;entryDx=0;entryDy=0;" edge="1" parent="1" source="x6zJdNe6x-nfvKUTiZdN-62" target="W8Xw8RqgCviROUl7637E-12">
          <mxGeometry relative="1" as="geometry" />
        </mxCell>
        <mxCell id="x6zJdNe6x-nfvKUTiZdN-62" value="Catering" style="rounded=1;whiteSpace=wrap;html=1;" parent="1" vertex="1">
          <mxGeometry x="630" y="520" width="120" height="40" as="geometry" />
        </mxCell>
        <mxCell id="W8Xw8RqgCviROUl7637E-31" style="edgeStyle=orthogonalEdgeStyle;rounded=0;orthogonalLoop=1;jettySize=auto;html=1;exitX=1;exitY=0.5;exitDx=0;exitDy=0;entryX=0;entryY=0.5;entryDx=0;entryDy=0;" edge="1" parent="1" source="x6zJdNe6x-nfvKUTiZdN-63" target="W8Xw8RqgCviROUl7637E-13">
          <mxGeometry relative="1" as="geometry" />
        </mxCell>
        <mxCell id="W8Xw8RqgCviROUl7637E-32" style="edgeStyle=orthogonalEdgeStyle;rounded=0;orthogonalLoop=1;jettySize=auto;html=1;exitX=1;exitY=0.5;exitDx=0;exitDy=0;entryX=0;entryY=0.5;entryDx=0;entryDy=0;" edge="1" parent="1" source="x6zJdNe6x-nfvKUTiZdN-63" target="W8Xw8RqgCviROUl7637E-14">
          <mxGeometry relative="1" as="geometry" />
        </mxCell>
        <mxCell id="x6zJdNe6x-nfvKUTiZdN-63" value="Entertainment" style="rounded=1;whiteSpace=wrap;html=1;" parent="1" vertex="1">
          <mxGeometry x="630" y="620" width="120" height="40" as="geometry" />
        </mxCell>
        <mxCell id="x6zJdNe6x-nfvKUTiZdN-71" value="Forest" style="rounded=1;whiteSpace=wrap;html=1;" parent="1" vertex="1">
          <mxGeometry x="810" y="10" width="90" height="20" as="geometry" />
        </mxCell>
        <mxCell id="x6zJdNe6x-nfvKUTiZdN-72" value="Beach&amp;nbsp;" style="rounded=1;whiteSpace=wrap;html=1;" parent="1" vertex="1">
          <mxGeometry x="810" y="40" width="90" height="20" as="geometry" />
        </mxCell>
        <mxCell id="x6zJdNe6x-nfvKUTiZdN-73" value="Barn/Farm" style="rounded=1;whiteSpace=wrap;html=1;" parent="1" vertex="1">
          <mxGeometry x="810" y="70" width="90" height="20" as="geometry" />
        </mxCell>
        <mxCell id="x6zJdNe6x-nfvKUTiZdN-74" value="Castle" style="rounded=1;whiteSpace=wrap;html=1;" parent="1" vertex="1">
          <mxGeometry x="810" y="100" width="90" height="20" as="geometry" />
        </mxCell>
        <mxCell id="x6zJdNe6x-nfvKUTiZdN-75" value="Garden" style="rounded=1;whiteSpace=wrap;html=1;" parent="1" vertex="1">
          <mxGeometry x="810" y="130" width="90" height="20" as="geometry" />
        </mxCell>
        <mxCell id="x6zJdNe6x-nfvKUTiZdN-76" value="Banquet Hall" style="rounded=1;whiteSpace=wrap;html=1;" parent="1" vertex="1">
          <mxGeometry x="810" y="160" width="90" height="20" as="geometry" />
        </mxCell>
        <mxCell id="x6zJdNe6x-nfvKUTiZdN-78" value="Bushveld" style="rounded=1;whiteSpace=wrap;html=1;" parent="1" vertex="1">
          <mxGeometry x="810" y="-20" width="90" height="20" as="geometry" />
        </mxCell>
        <mxCell id="x6zJdNe6x-nfvKUTiZdN-79" value="All" style="rounded=1;whiteSpace=wrap;html=1;" parent="1" vertex="1">
          <mxGeometry x="810" y="-50" width="90" height="20" as="geometry" />
        </mxCell>
        <mxCell id="W8Xw8RqgCviROUl7637E-3" value="Filter:&lt;br&gt;&lt;br&gt;1. Province&lt;br&gt;2. Indoor/Outdoor&lt;br&gt;3. All-inclusive&lt;br&gt;4. Online booking" style="whiteSpace=wrap;html=1;aspect=fixed;" vertex="1" parent="1">
          <mxGeometry x="545" y="-340" width="275" height="275" as="geometry" />
        </mxCell>
        <mxCell id="W8Xw8RqgCviROUl7637E-4" value="Bride" style="rounded=1;whiteSpace=wrap;html=1;" vertex="1" parent="1">
          <mxGeometry x="810" y="215" width="90" height="20" as="geometry" />
        </mxCell>
        <mxCell id="W8Xw8RqgCviROUl7637E-5" value="Groom" style="rounded=1;whiteSpace=wrap;html=1;" vertex="1" parent="1">
          <mxGeometry x="810" y="245" width="90" height="20" as="geometry" />
        </mxCell>
        <mxCell id="W8Xw8RqgCviROUl7637E-7" value="Bridesmaids" style="rounded=1;whiteSpace=wrap;html=1;" vertex="1" parent="1">
          <mxGeometry x="810" y="275" width="90" height="20" as="geometry" />
        </mxCell>
        <mxCell id="W8Xw8RqgCviROUl7637E-8" value="Wedding party" style="rounded=1;whiteSpace=wrap;html=1;" vertex="1" parent="1">
          <mxGeometry x="810" y="305" width="90" height="20" as="geometry" />
        </mxCell>
        <mxCell id="W8Xw8RqgCviROUl7637E-9" value="Tents" style="rounded=1;whiteSpace=wrap;html=1;" vertex="1" parent="1">
          <mxGeometry x="810" y="398" width="90" height="20" as="geometry" />
        </mxCell>
        <mxCell id="W8Xw8RqgCviROUl7637E-10" value="Decor" style="rounded=1;whiteSpace=wrap;html=1;" vertex="1" parent="1">
          <mxGeometry x="810" y="428" width="90" height="20" as="geometry" />
        </mxCell>
        <mxCell id="W8Xw8RqgCviROUl7637E-11" value="Kitchen meal" style="rounded=1;whiteSpace=wrap;html=1;" vertex="1" parent="1">
          <mxGeometry x="810" y="510" width="90" height="20" as="geometry" />
        </mxCell>
        <mxCell id="W8Xw8RqgCviROUl7637E-12" value="Food truck" style="rounded=1;whiteSpace=wrap;html=1;" vertex="1" parent="1">
          <mxGeometry x="810" y="550" width="90" height="20" as="geometry" />
        </mxCell>
        <mxCell id="W8Xw8RqgCviROUl7637E-13" value="Other" style="rounded=1;whiteSpace=wrap;html=1;" vertex="1" parent="1">
          <mxGeometry x="810" y="610" width="90" height="20" as="geometry" />
        </mxCell>
        <mxCell id="W8Xw8RqgCviROUl7637E-14" value="DJ" style="rounded=1;whiteSpace=wrap;html=1;" vertex="1" parent="1">
          <mxGeometry x="810" y="650" width="90" height="20" as="geometry" />
        </mxCell>
      </root>
    </mxGraphModel>
  </diagram>
</mxfile>
